<svg width="16" height="16" viewBox="0 0 16 16" fill="none" xmlns="http://www.w3.org/2000/svg">
<path d="M2.5 13.5C2.5 13.5 2.5 12.4636 2.55076 11C2.67273 7.48328 2.5 1.5 4.5 1.5C6.5 1.5 5.5 6 7.5 6C9 6 8.5 2.5 10 2.5C11.5 2.5 11 4.5 13.5 4.5" stroke="black" stroke-linecap="round" stroke-linejoin="round"/>
<path d="M2.5 13.5C2.5 13.5 2.5 12.4636 2.55076 11C2.67273 7.48328 2.5 1.5 4.5 1.5C6.5 1.5 5.5 6 7.5 6C9 6 8.5 2.5 10 2.5C11.5 2.5 11 4.5 13.5 4.5" stroke="white" stroke-linecap="round" stroke-linejoin="round"/>
</svg>
