<svg width="24" height="24" viewBox="0 0 24 24" fill="none" xmlns="http://www.w3.org/2000/svg">
<rect width="24" height="24" rx="1" fill="#101010"/>
<path d="M4.02764 16.0138C4.0107 16.0054 4 15.988 4 15.9691L4 7L11.9106 3.04472C11.9669 3.01657 12.0331 3.01657 12.0894 3.04472L19.9106 6.95528C19.9474 6.97371 19.9474 7.0263 19.9106 7.04472L12 11L12 19.9191C12 19.9563 11.9609 19.9804 11.9276 19.9638L4.02764 16.0138Z" fill="#F0F0F0"/>
<path d="M4.02764 16.0138C4.0107 16.0054 4 15.988 4 15.9691L4 7.0809C4 7.04373 4.03912 7.01956 4.07236 7.03618L11.9724 10.9862C11.9893 10.9947 12 11.012 12 11.0309L12 19.9191C12 19.9563 11.9609 19.9804 11.9276 19.9638L4.02764 16.0138Z" fill="#9F9F9F"/>
</svg>
