<svg width="24" height="24" viewBox="0 0 24 24" fill="none" xmlns="http://www.w3.org/2000/svg">
<rect width="24" height="24" rx="1" fill="#101010"/>
<path d="M6.02871 6.07233C6.01119 6.06409 6 6.04646 6 6.02709L6 3.94118L7.91484 3.04008C7.96878 3.01469 8.03122 3.01469 8.08516 3.04008L9.90386 3.89594C9.94214 3.91395 9.94214 3.9684 9.90386 3.98642L8 4.88236L8 6.92121C8 6.95786 7.96187 6.98206 7.92871 6.96645L6.02871 6.07233Z" fill="#F0F0F0"/>
<path d="M6.02871 6.07233C6.01119 6.06409 6 6.04646 6 6.02709L6 4.01997C6 3.98331 6.03813 3.95912 6.07129 3.97472L7.97129 4.86885C7.98881 4.87709 8 4.89472 8 4.91409L8 6.92121C8 6.95786 7.96187 6.98206 7.92871 6.96645L6.02871 6.07233Z" fill="#9F9F9F"/>
<path d="M10.0287 8.07233C10.0112 8.06409 10 8.04646 10 8.02709L10 5.94118L11.9148 5.04008C11.9688 5.01469 12.0312 5.01469 12.0852 5.04008L13.9039 5.89594C13.9421 5.91395 13.9421 5.9684 13.9039 5.98642L12 6.88236L12 8.92121C12 8.95786 11.9619 8.98206 11.9287 8.96645L10.0287 8.07233Z" fill="#F0F0F0"/>
<path d="M10.0287 8.07233C10.0112 8.06409 10 8.04646 10 8.02709L10 6.01997C10 5.98331 10.0381 5.95912 10.0713 5.97472L11.9713 6.86885C11.9888 6.87709 12 6.89472 12 6.91409L12 8.92121C12 8.95786 11.9619 8.98206 11.9287 8.96645L10.0287 8.07233Z" fill="#9F9F9F"/>
<path d="M14.0287 10.0723C14.0112 10.0641 14 10.0465 14 10.0271L14 7.94118L15.9148 7.04008C15.9688 7.01469 16.0312 7.01469 16.0852 7.04008L17.9039 7.89594C17.9421 7.91395 17.9421 7.9684 17.9039 7.98642L16 8.88236L16 10.9212C16 10.9579 15.9619 10.9821 15.9287 10.9665L14.0287 10.0723Z" fill="#F0F0F0"/>
<path d="M14.0287 10.0723C14.0112 10.0641 14 10.0465 14 10.0271L14 8.01997C14 7.98331 14.0381 7.95912 14.0713 7.97472L15.9713 8.86885C15.9888 8.87709 16 8.89472 16 8.91409L16 10.9212C16 10.9579 15.9619 10.9821 15.9287 10.9665L14.0287 10.0723Z" fill="#9F9F9F"/>
<path d="M6.02871 11.0723C6.01119 11.0641 6 11.0465 6 11.0271L6 8.94118L7.91484 8.04008C7.96878 8.01469 8.03122 8.01469 8.08516 8.04008L9.90386 8.89594C9.94214 8.91395 9.94214 8.9684 9.90386 8.98642L8 9.88236L8 11.9212C8 11.9579 7.96187 11.9821 7.92871 11.9665L6.02871 11.0723Z" fill="#F0F0F0"/>
<path d="M6.02871 11.0723C6.01119 11.0641 6 11.0465 6 11.0271L6 9.01997C6 8.98331 6.03813 8.95912 6.07129 8.97472L7.97129 9.86885C7.98881 9.87709 8 9.89472 8 9.91409L8 11.9212C8 11.9579 7.96187 11.9821 7.92871 11.9665L6.02871 11.0723Z" fill="#9F9F9F"/>
<path d="M10.0287 13.0723C10.0112 13.0641 10 13.0465 10 13.0271L10 10.9412L11.9148 10.0401C11.9688 10.0147 12.0312 10.0147 12.0852 10.0401L13.9039 10.8959C13.9421 10.914 13.9421 10.9684 13.9039 10.9864L12 11.8824L12 13.9212C12 13.9579 11.9619 13.9821 11.9287 13.9665L10.0287 13.0723Z" fill="#F0F0F0"/>
<path d="M10.0287 13.0723C10.0112 13.0641 10 13.0465 10 13.0271L10 11.02C10 10.9833 10.0381 10.9591 10.0713 10.9747L11.9713 11.8688C11.9888 11.8771 12 11.8947 12 11.9141L12 13.9212C12 13.9579 11.9619 13.9821 11.9287 13.9665L10.0287 13.0723Z" fill="#9F9F9F"/>
<path d="M14.0287 15.0723C14.0112 15.0641 14 15.0465 14 15.0271L14 12.9412L15.9148 12.0401C15.9688 12.0147 16.0312 12.0147 16.0852 12.0401L17.9039 12.8959C17.9421 12.914 17.9421 12.9684 17.9039 12.9864L16 13.8824L16 15.9212C16 15.9579 15.9619 15.9821 15.9287 15.9665L14.0287 15.0723Z" fill="#F0F0F0"/>
<path d="M14.0287 15.0723C14.0112 15.0641 14 15.0465 14 15.0271L14 13.02C14 12.9833 14.0381 12.9591 14.0713 12.9747L15.9713 13.8688C15.9888 13.8771 16 13.8947 16 13.9141L16 15.9212C16 15.9579 15.9619 15.9821 15.9287 15.9665L14.0287 15.0723Z" fill="#9F9F9F"/>
<path d="M6.02871 16.0723C6.01119 16.0641 6 16.0465 6 16.0271L6 13.9412L7.91484 13.0401C7.96878 13.0147 8.03122 13.0147 8.08516 13.0401L9.90386 13.8959C9.94214 13.914 9.94214 13.9684 9.90386 13.9864L8 14.8824L8 16.9212C8 16.9579 7.96187 16.9821 7.92871 16.9665L6.02871 16.0723Z" fill="#F0F0F0"/>
<path d="M6.02871 16.0723C6.01119 16.0641 6 16.0465 6 16.0271L6 14.02C6 13.9833 6.03813 13.9591 6.07129 13.9747L7.97129 14.8688C7.98881 14.8771 8 14.8947 8 14.9141L8 16.9212C8 16.9579 7.96187 16.9821 7.92871 16.9665L6.02871 16.0723Z" fill="#9F9F9F"/>
<path d="M10.0287 18.0723C10.0112 18.0641 10 18.0465 10 18.0271L10 15.9412L11.9148 15.0401C11.9688 15.0147 12.0312 15.0147 12.0852 15.0401L13.9039 15.8959C13.9421 15.914 13.9421 15.9684 13.9039 15.9864L12 16.8824L12 18.9212C12 18.9579 11.9619 18.9821 11.9287 18.9665L10.0287 18.0723Z" fill="#F0F0F0"/>
<path d="M10.0287 18.0723C10.0112 18.0641 10 18.0465 10 18.0271L10 16.02C10 15.9833 10.0381 15.9591 10.0713 15.9747L11.9713 16.8688C11.9888 16.8771 12 16.8947 12 16.9141L12 18.9212C12 18.9579 11.9619 18.9821 11.9287 18.9665L10.0287 18.0723Z" fill="#9F9F9F"/>
<path d="M14.0287 20.0723C14.0112 20.0641 14 20.0465 14 20.0271L14 17.9412L15.9148 17.0401C15.9688 17.0147 16.0312 17.0147 16.0852 17.0401L17.9039 17.8959C17.9421 17.914 17.9421 17.9684 17.9039 17.9864L16 18.8824L16 20.9212C16 20.9579 15.9619 20.9821 15.9287 20.9665L14.0287 20.0723Z" fill="#F0F0F0"/>
<path d="M14.0287 20.0723C14.0112 20.0641 14 20.0465 14 20.0271L14 18.02C14 17.9833 14.0381 17.9591 14.0713 17.9747L15.9713 18.8688C15.9888 18.8771 16 18.8947 16 18.9141L16 20.9212C16 20.9579 15.9619 20.9821 15.9287 20.9665L14.0287 20.0723Z" fill="#9F9F9F"/>
</svg>
