<svg width="25" height="24" viewBox="0 0 25 24" fill="none" xmlns="http://www.w3.org/2000/svg">
<path d="M5.59619 14.7886C3.05779 12.2502 3.05779 8.1346 5.59619 5.59619V5.59619C8.1346 3.05778 12.2502 3.05778 14.7886 5.59619L20.0919 10.8995L17.9706 13.0208L13.0208 8.07106C11.654 6.70423 9.4379 6.70423 8.07107 8.07106V8.07106C6.70423 9.4379 6.70423 11.654 8.07107 13.0208L13.0208 17.9706L10.8995 20.0919L5.59619 14.7886Z" stroke="#A0A0A0" stroke-linecap="round" stroke-linejoin="round"/>
<path d="M10.5459 16.2028L9.13172 17.617C8.93646 17.8123 8.93646 18.1288 9.13172 18.3241L10.5459 19.7383C10.7412 19.9336 11.0578 19.9336 11.253 19.7383L12.6673 18.3241C12.8625 18.1288 12.8625 17.8123 12.6673 17.617L11.253 16.2028C11.0578 16.0075 10.7412 16.0075 10.5459 16.2028Z" fill="white"/>
<path d="M10.5459 16.2028L9.13172 17.617C8.93646 17.8123 8.93646 18.1288 9.13172 18.3241L10.5459 19.7383C10.7412 19.9336 11.0578 19.9336 11.253 19.7383L12.6673 18.3241C12.8625 18.1288 12.8625 17.8123 12.6673 17.617L11.253 16.2028C11.0578 16.0075 10.7412 16.0075 10.5459 16.2028Z" fill="#A0A0A0"/>
<path d="M17.617 9.13171L16.2028 10.5459C16.0075 10.7412 16.0075 11.0578 16.2028 11.253L17.617 12.6672C17.8123 12.8625 18.1289 12.8625 18.3241 12.6672L19.7383 11.253C19.9336 11.0578 19.9336 10.7412 19.7383 10.5459L18.3241 9.13171C18.1289 8.93645 17.8123 8.93645 17.617 9.13171Z" fill="white"/>
<path d="M17.617 9.13171L16.2028 10.5459C16.0075 10.7412 16.0075 11.0578 16.2028 11.253L17.617 12.6672C17.8123 12.8625 18.1289 12.8625 18.3241 12.6672L19.7383 11.253C19.9336 11.0578 19.9336 10.7412 19.7383 10.5459L18.3241 9.13171C18.1289 8.93645 17.8123 8.93645 17.617 9.13171Z" fill="#A0A0A0"/>
<path d="M15.5 15.5L20.5 20.5" stroke="#EC1313" stroke-linecap="round" stroke-linejoin="round"/>
<path d="M15.5 20.5L20.5 15.5" stroke="#EC1313" stroke-linecap="round" stroke-linejoin="round"/>
</svg>
