<svg width="24" height="24" viewBox="0 0 24 24" fill="none" xmlns="http://www.w3.org/2000/svg">
<path d="M12 6.00003C10.4645 6.00003 8.92894 6.58581 7.75736 7.75739C6.58579 8.92896 6 10.4645 6 12M18 12C18 13.5356 17.4142 15.0711 16.2426 16.2427C15.0711 17.4142 13.5355 18 12 18" stroke="black" stroke-linecap="round" stroke-linejoin="round"/>
<path d="M12 6.00003C10.4645 6.00003 8.92894 6.58581 7.75736 7.75739C6.58579 8.92896 6 10.4645 6 12M18 12C18 13.5356 17.4142 15.0711 16.2426 16.2427C15.0711 17.4142 13.5355 18 12 18" stroke="white" stroke-linecap="round" stroke-linejoin="round"/>
<path d="M4.5 11.5L6 13L7.5 11.5" stroke="black" stroke-linecap="round" stroke-linejoin="round"/>
<path d="M4.5 11.5L6 13L7.5 11.5" stroke="white" stroke-linecap="round" stroke-linejoin="round"/>
<path d="M16.5 12.5L18 11L19.5 12.5" stroke="black" stroke-linecap="round" stroke-linejoin="round"/>
<path d="M16.5 12.5L18 11L19.5 12.5" stroke="white" stroke-linecap="round" stroke-linejoin="round"/>
</svg>
