<svg width="24" height="24" viewBox="0 0 24 24" fill="none" xmlns="http://www.w3.org/2000/svg">
<rect width="24" height="24" rx="1" fill="#101010"/>
<path d="M11.0276 20.0138C11.0107 20.0054 11 19.988 11 19.9691L11 11L18.9106 7.04472C18.9669 7.01657 19.0331 7.01657 19.0894 7.04472L20.9106 7.95528C20.9474 7.97371 20.9474 8.0263 20.9106 8.04472L13 12L13 20.9191C13 20.9563 12.9609 20.9804 12.9276 20.9638L11.0276 20.0138Z" fill="#F0F0F0"/>
<path d="M11.0276 20.0138C11.0107 20.0054 11 19.988 11 19.9691L11 11.0809C11 11.0437 11.0391 11.0196 11.0724 11.0362L12.9724 11.9862C12.9893 11.9947 13 12.012 13 12.0309L13 20.9191C13 20.9563 12.9609 20.9804 12.9276 20.9638L11.0276 20.0138Z" fill="#9F9F9F"/>
<path d="M7.02764 18.0138C7.0107 18.0054 7 17.988 7 17.9691L7 9L14.9106 5.04472C14.9669 5.01657 15.0331 5.01657 15.0894 5.04472L16.9106 5.95528C16.9474 5.97371 16.9474 6.0263 16.9106 6.04472L9 10L9 18.9191C9 18.9563 8.96088 18.9804 8.92764 18.9638L7.02764 18.0138Z" fill="#F0F0F0"/>
<path d="M7.02764 18.0138C7.0107 18.0054 7 17.988 7 17.9691L7 9.0809C7 9.04373 7.03912 9.01956 7.07236 9.03618L8.97236 9.9862C8.9893 9.99467 9 10.012 9 10.0309L9 18.9191C9 18.9563 8.96088 18.9804 8.92764 18.9638L7.02764 18.0138Z" fill="#9F9F9F"/>
<path d="M3.02764 16.0138C3.0107 16.0054 3 15.988 3 15.9691L3 7L10.9106 3.04472C10.9669 3.01657 11.0331 3.01657 11.0894 3.04472L12.9106 3.95528C12.9474 3.97371 12.9474 4.0263 12.9106 4.04472L5 8.00002L5 16.9191C5 16.9563 4.96088 16.9804 4.92764 16.9638L3.02764 16.0138Z" fill="#F0F0F0"/>
<path d="M3.02764 16.0138C3.0107 16.0054 3 15.988 3 15.9691L3 7.0809C3 7.04373 3.03912 7.01956 3.07236 7.03618L4.97236 7.9862C4.9893 7.99467 5 8.01198 5 8.03092L5 16.9191C5 16.9563 4.96088 16.9804 4.92764 16.9638L3.02764 16.0138Z" fill="#9F9F9F"/>
</svg>
