<svg width="24" height="24" viewBox="0 0 24 24" fill="none" xmlns="http://www.w3.org/2000/svg">
<rect width="24" height="24" rx="1" fill="#101010"/>
<rect x="9" y="8" width="6" height="6" rx="0.2" transform="rotate(-90 9 8)" fill="#C4C4C4"/>
<rect x="9" y="15" width="6" height="6" rx="0.2" transform="rotate(-90 9 15)" fill="#C4C4C4"/>
<rect x="9" y="22" width="6" height="6" rx="0.2" transform="rotate(-90 9 22)" fill="#C4C4C4"/>
<rect x="16" y="8" width="6" height="6" rx="0.2" transform="rotate(-90 16 8)" fill="#C4C4C4"/>
<rect x="16" y="15" width="6" height="6" rx="0.2" transform="rotate(-90 16 15)" fill="#C4C4C4"/>
<rect x="16" y="22" width="6" height="6" rx="0.2" transform="rotate(-90 16 22)" fill="#C4C4C4"/>
<rect x="2" y="8" width="6" height="6" rx="0.2" transform="rotate(-90 2 8)" fill="#C4C4C4"/>
<rect x="2" y="15" width="6" height="6" rx="0.2" transform="rotate(-90 2 15)" fill="#C4C4C4"/>
<rect x="2" y="22" width="6" height="6" rx="0.2" transform="rotate(-90 2 22)" fill="#C4C4C4"/>
</svg>
