<svg width="24" height="24" viewBox="0 0 24 24" fill="none" xmlns="http://www.w3.org/2000/svg">
<rect width="24" height="24" rx="1" fill="#101010"/>
<path d="M5.14142 11.8586L5.65858 11.3414C5.78457 11.2154 6 11.3047 6 11.4828L6 12.5172C6 12.6953 5.78457 12.7846 5.65858 12.6586L5.14142 12.1414C5.06332 12.0633 5.06332 11.9367 5.14142 11.8586Z" fill="white"/>
<path d="M3 12.8V11.2C3 11.0895 3.08954 11 3.2 11H4.8C4.91046 11 5 11.0895 5 11.2V12.8C5 12.9105 4.91046 13 4.8 13H3.2C3.08954 13 3 12.9105 3 12.8Z" fill="white"/>
<path d="M10.7071 16.7071L9.29289 15.2929C9.10536 15.1054 9 14.851 9 14.5858V10C9 9.44772 9.44772 9 10 9H14.5858C14.851 9 15.1054 9.10536 15.2929 9.29289L16.7071 10.7071C16.8946 10.8946 17 11.149 17 11.4142V16C17 16.5523 16.5523 17 16 17H11.4142C11.149 17 10.8946 16.8946 10.7071 16.7071Z" fill="url(#paint0_linear)"/>
<rect x="9" y="15" width="6" height="6" rx="0.2" transform="rotate(-90 9 15)" fill="#C4C4C4"/>
<defs>
<linearGradient id="paint0_linear" x1="9" y1="9" x2="17" y2="17" gradientUnits="userSpaceOnUse">
<stop stop-color="#8D8D8D"/>
<stop offset="1" stop-color="#292929" stop-opacity="0"/>
</linearGradient>
</defs>
</svg>
