<svg xmlns="http://www.w3.org/2000/svg" viewBox="0 0 1024 1024"><defs><style>.cls-1{fill:none;stroke:#fff;stroke-miterlimit:10;stroke-width:2px;}</style></defs><g id="background"><rect x="0.23" y="0.23" width="1024" height="1024"/></g><g id="_2px" data-name="2px"><line class="cls-1" x1="253.7" y1="516.9" x2="1.82" y2="520.9"/><line class="cls-1" x1="771.72" y1="504.62" x2="1023.5" y2="496.68"/><line class="cls-1" x1="253.96" y1="525" x2="2.33" y2="536.87"/><line class="cls-1" x1="771.34" y1="496.53" x2="1022.75" y2="480.73"/><line class="cls-1" x1="254.46" y1="533.08" x2="3.33" y2="552.81"/><line class="cls-1" x1="770.7" y1="488.46" x2="1021.5" y2="464.81"/><line class="cls-1" x1="255.22" y1="541.14" x2="4.83" y2="568.71"/><line class="cls-1" x1="769.82" y1="480.41" x2="1019.75" y2="448.93"/><line class="cls-1" x1="256.24" y1="549.17" x2="6.82" y2="584.56"/><line class="cls-1" x1="768.68" y1="472.39" x2="1017.51" y2="433.12"/><line class="cls-1" x1="257.5" y1="557.17" x2="9.31" y2="600.33"/><line class="cls-1" x1="767.29" y1="464.41" x2="1014.77" y2="417.38"/><line class="cls-1" x1="259.01" y1="565.13" x2="12.3" y2="616.02"/><line class="cls-1" x1="765.66" y1="456.48" x2="1011.55" y2="401.74"/><line class="cls-1" x1="260.77" y1="573.03" x2="15.77" y2="631.61"/><line class="cls-1" x1="763.77" y1="448.6" x2="1007.83" y2="386.2"/><line class="cls-1" x1="262.78" y1="580.88" x2="19.72" y2="647.09"/><line class="cls-1" x1="761.65" y1="440.79" x2="1003.63" y2="370.79"/><line class="cls-1" x1="265.03" y1="588.66" x2="24.16" y2="662.43"/><line class="cls-1" x1="759.27" y1="433.05" x2="998.96" y2="355.52"/><line class="cls-1" x1="267.52" y1="596.36" x2="29.08" y2="677.63"/><line class="cls-1" x1="756.66" y1="425.38" x2="993.81" y2="340.4"/><line class="cls-1" x1="270.25" y1="603.99" x2="34.46" y2="692.66"/><line class="cls-1" x1="753.81" y1="417.8" x2="988.18" y2="325.46"/><line class="cls-1" x1="273.22" y1="611.52" x2="40.32" y2="707.52"/><line class="cls-1" x1="750.73" y1="410.32" x2="982.1" y2="310.69"/><line class="cls-1" x1="276.42" y1="618.96" x2="46.64" y2="722.19"/><line class="cls-1" x1="747.41" y1="402.93" x2="975.55" y2="296.12"/><line class="cls-1" x1="279.86" y1="626.29" x2="53.41" y2="736.66"/><line class="cls-1" x1="743.86" y1="395.65" x2="968.55" y2="281.76"/><line class="cls-1" x1="283.52" y1="633.52" x2="60.63" y2="750.9"/><line class="cls-1" x1="740.09" y1="388.48" x2="961.11" y2="267.63"/><line class="cls-1" x1="287.4" y1="640.62" x2="68.29" y2="764.92"/><line class="cls-1" x1="736.09" y1="381.44" x2="953.23" y2="253.74"/><line class="cls-1" x1="291.51" y1="647.6" x2="76.39" y2="778.68"/><line class="cls-1" x1="731.88" y1="374.53" x2="944.92" y2="240.1"/><line class="cls-1" x1="295.83" y1="654.45" x2="84.91" y2="792.19"/><line class="cls-1" x1="727.45" y1="367.75" x2="936.19" y2="226.73"/><line class="cls-1" x1="300.36" y1="661.16" x2="93.85" y2="805.42"/><line class="cls-1" x1="722.81" y1="361.11" x2="927.04" y2="213.63"/><line class="cls-1" x1="305.1" y1="667.73" x2="103.2" y2="818.37"/><line class="cls-1" x1="717.97" y1="354.62" x2="917.49" y2="200.83"/><line class="cls-1" x1="310.05" y1="674.14" x2="112.95" y2="831.02"/><line class="cls-1" x1="712.92" y1="348.28" x2="907.54" y2="188.34"/><line class="cls-1" x1="315.19" y1="680.4" x2="123.09" y2="843.36"/><line class="cls-1" x1="707.69" y1="342.11" x2="897.21" y2="176.16"/><line class="cls-1" x1="320.52" y1="686.49" x2="133.61" y2="855.38"/><line class="cls-1" x1="702.26" y1="336.1" x2="886.5" y2="164.31"/><line class="cls-1" x1="326.04" y1="692.41" x2="144.51" y2="867.06"/><line class="cls-1" x1="696.64" y1="330.26" x2="875.43" y2="152.8"/><line class="cls-1" x1="331.75" y1="698.16" x2="155.76" y2="878.4"/><line class="cls-1" x1="690.85" y1="324.6" x2="864" y2="141.64"/><line class="cls-1" x1="337.63" y1="703.73" x2="167.36" y2="889.37"/><line class="cls-1" x1="684.88" y1="319.13" x2="852.23" y2="130.84"/><line class="cls-1" x1="343.68" y1="709.11" x2="179.3" y2="899.98"/><line class="cls-1" x1="678.74" y1="313.85" x2="840.13" y2="120.42"/><line class="cls-1" x1="349.9" y1="714.29" x2="191.56" y2="910.22"/><line class="cls-1" x1="672.45" y1="308.75" x2="827.71" y2="110.38"/><line class="cls-1" x1="356.28" y1="719.28" x2="204.14" y2="920.06"/><line class="cls-1" x1="665.99" y1="303.86" x2="814.98" y2="100.73"/><line class="cls-1" x1="362.81" y1="724.07" x2="217.02" y2="929.51"/><line class="cls-1" x1="659.39" y1="299.18" x2="801.95" y2="91.49"/><line class="cls-1" x1="369.49" y1="728.66" x2="230.18" y2="938.55"/><line class="cls-1" x1="652.64" y1="294.7" x2="788.64" y2="82.66"/><line class="cls-1" x1="376.3" y1="733.03" x2="243.63" y2="947.17"/><line class="cls-1" x1="645.76" y1="290.43" x2="775.07" y2="74.25"/><line class="cls-1" x1="383.25" y1="737.19" x2="257.34" y2="955.37"/><line class="cls-1" x1="638.74" y1="286.39" x2="761.23" y2="66.26"/><line class="cls-1" x1="390.33" y1="741.12" x2="271.29" y2="963.13"/><line class="cls-1" x1="631.6" y1="282.56" x2="747.16" y2="58.72"/><line class="cls-1" x1="397.52" y1="744.84" x2="285.48" y2="970.46"/><line class="cls-1" x1="624.35" y1="278.96" x2="732.85" y2="51.61"/><line class="cls-1" x1="404.83" y1="748.33" x2="299.9" y2="977.34"/><line class="cls-1" x1="616.99" y1="275.58" x2="718.33" y2="44.96"/><line class="cls-1" x1="412.25" y1="751.58" x2="314.52" y2="983.77"/><line class="cls-1" x1="609.53" y1="272.44" x2="703.61" y2="38.76"/><line class="cls-1" x1="419.76" y1="754.61" x2="329.34" y2="989.73"/><line class="cls-1" x1="601.97" y1="269.54" x2="688.7" y2="33.03"/><line class="cls-1" x1="427.36" y1="757.4" x2="344.33" y2="995.23"/><line class="cls-1" x1="594.32" y1="266.87" x2="673.63" y2="27.77"/><line class="cls-1" x1="435.05" y1="759.95" x2="359.49" y2="1000.26"/><line class="cls-1" x1="586.6" y1="264.44" x2="658.39" y2="22.98"/><line class="cls-1" x1="442.81" y1="762.25" x2="374.8" y2="1004.81"/><line class="cls-1" x1="578.8" y1="262.25" x2="643.01" y2="18.66"/><line class="cls-1" x1="450.64" y1="764.32" x2="390.24" y2="1008.88"/><line class="cls-1" x1="570.94" y1="260.31" x2="627.5" y2="14.83"/><line class="cls-1" x1="458.53" y1="766.14" x2="405.81" y2="1012.47"/><line class="cls-1" x1="563.02" y1="258.62" x2="611.89" y2="11.49"/><line class="cls-1" x1="466.48" y1="767.71" x2="421.48" y2="1015.57"/><line class="cls-1" x1="555.05" y1="257.17" x2="596.17" y2="8.64"/><line class="cls-1" x1="474.47" y1="769.03" x2="437.23" y2="1018.17"/><line class="cls-1" x1="547.04" y1="255.97" x2="580.38" y2="6.28"/><line class="cls-1" x1="482.49" y1="770.1" x2="453.07" y2="1020.29"/><line class="cls-1" x1="539" y1="255.03" x2="564.51" y2="4.41"/><line class="cls-1" x1="490.55" y1="770.92" x2="468.95" y2="1021.9"/><line class="cls-1" x1="530.93" y1="254.33" x2="548.6" y2="3.04"/><line class="cls-1" x1="498.63" y1="771.49" x2="484.89" y2="1023.02"/><line class="cls-1" x1="522.84" y1="253.89" x2="532.65" y2="2.17"/><line class="cls-1" x1="506.72" y1="771.8" x2="500.85" y2="1023.65"/><line class="cls-1" x1="514.75" y1="253.7" x2="516.68" y2="1.8"/><line class="cls-1" x1="514.82" y1="771.87" x2="516.82" y2="1023.77"/><line class="cls-1" x1="506.65" y1="253.77" x2="500.71" y2="1.93"/><line class="cls-1" x1="522.91" y1="771.68" x2="532.79" y2="1023.39"/><line class="cls-1" x1="498.56" y1="254.08" x2="484.75" y2="2.55"/><line class="cls-1" x1="531" y1="771.23" x2="548.73" y2="1022.52"/><line class="cls-1" x1="490.48" y1="254.65" x2="468.82" y2="3.68"/><line class="cls-1" x1="539.07" y1="770.54" x2="564.65" y2="1021.14"/><line class="cls-1" x1="482.43" y1="255.48" x2="452.93" y2="5.3"/><line class="cls-1" x1="547.11" y1="769.59" x2="580.51" y2="1019.27"/><line class="cls-1" x1="474.4" y1="256.55" x2="437.1" y2="7.42"/><line class="cls-1" x1="555.12" y1="768.39" x2="596.3" y2="1016.91"/><line class="cls-1" x1="466.41" y1="257.87" x2="421.35" y2="10.03"/><line class="cls-1" x1="563.09" y1="766.94" x2="612.02" y2="1014.05"/><line class="cls-1" x1="458.47" y1="259.45" x2="405.68" y2="13.13"/><line class="cls-1" x1="571" y1="765.24" x2="627.63" y2="1010.7"/><line class="cls-1" x1="450.57" y1="261.27" x2="390.12" y2="16.72"/><line class="cls-1" x1="578.86" y1="763.3" x2="643.14" y2="1006.87"/><line class="cls-1" x1="442.74" y1="263.33" x2="374.67" y2="20.8"/><line class="cls-1" x1="586.66" y1="761.11" x2="658.52" y2="1002.56"/><line class="cls-1" x1="434.98" y1="265.64" x2="359.36" y2="25.35"/><line class="cls-1" x1="594.39" y1="758.68" x2="673.75" y2="997.76"/><line class="cls-1" x1="427.3" y1="268.19" x2="344.21" y2="30.38"/><line class="cls-1" x1="602.03" y1="756.01" x2="688.83" y2="992.49"/><line class="cls-1" x1="419.7" y1="270.98" x2="329.21" y2="35.89"/><line class="cls-1" x1="609.59" y1="753.1" x2="703.74" y2="986.76"/><line class="cls-1" x1="412.18" y1="274.01" x2="314.4" y2="41.86"/><line class="cls-1" x1="617.05" y1="749.96" x2="718.45" y2="980.56"/><line class="cls-1" x1="404.77" y1="277.27" x2="299.78" y2="48.28"/><line class="cls-1" x1="624.41" y1="746.58" x2="732.97" y2="973.9"/><line class="cls-1" x1="397.46" y1="280.76" x2="285.36" y2="55.17"/><line class="cls-1" x1="631.66" y1="742.98" x2="747.28" y2="966.79"/><line class="cls-1" x1="390.27" y1="284.48" x2="271.17" y2="62.5"/><line class="cls-1" x1="638.8" y1="739.15" x2="761.35" y2="959.24"/><line class="cls-1" x1="383.19" y1="288.42" x2="257.22" y2="70.27"/><line class="cls-1" x1="645.81" y1="735.1" x2="775.18" y2="951.25"/><line class="cls-1" x1="376.24" y1="292.58" x2="243.52" y2="78.47"/><line class="cls-1" x1="652.7" y1="730.83" x2="788.76" y2="942.84"/><line class="cls-1" x1="369.43" y1="296.95" x2="230.07" y2="87.1"/><line class="cls-1" x1="659.44" y1="726.35" x2="802.06" y2="934"/><line class="cls-1" x1="362.75" y1="301.53" x2="216.91" y2="96.14"/><line class="cls-1" x1="666.05" y1="721.67" x2="815.08" y2="924.76"/><line class="cls-1" x1="356.23" y1="306.32" x2="204.03" y2="105.59"/><line class="cls-1" x1="672.5" y1="716.77" x2="827.81" y2="915.11"/><line class="cls-1" x1="349.85" y1="311.32" x2="191.46" y2="115.44"/><line class="cls-1" x1="678.8" y1="711.68" x2="840.23" y2="905.06"/><line class="cls-1" x1="343.63" y1="316.51" x2="179.2" y2="125.67"/><line class="cls-1" x1="684.93" y1="706.39" x2="852.33" y2="894.64"/><line class="cls-1" x1="337.58" y1="321.89" x2="167.26" y2="136.28"/><line class="cls-1" x1="690.9" y1="700.92" x2="864.1" y2="883.84"/><line class="cls-1" x1="331.7" y1="327.46" x2="155.66" y2="147.27"/><line class="cls-1" x1="696.69" y1="695.26" x2="875.52" y2="872.68"/><line class="cls-1" x1="326" y1="333.21" x2="144.41" y2="158.6"/><line class="cls-1" x1="702.3" y1="689.42" x2="886.59" y2="861.16"/><line class="cls-1" x1="320.48" y1="339.13" x2="133.53" y2="170.29"/><line class="cls-1" x1="707.73" y1="683.41" x2="897.3" y2="849.31"/><line class="cls-1" x1="315.14" y1="345.22" x2="123.01" y2="182.31"/><line class="cls-1" x1="712.97" y1="677.24" x2="907.63" y2="837.13"/><line class="cls-1" x1="310" y1="351.48" x2="112.87" y2="194.65"/><line class="cls-1" x1="718.01" y1="670.9" x2="917.57" y2="824.63"/><line class="cls-1" x1="305.06" y1="357.9" x2="103.12" y2="207.3"/><line class="cls-1" x1="722.85" y1="664.41" x2="927.12" y2="811.83"/><line class="cls-1" x1="300.32" y1="364.46" x2="93.78" y2="220.25"/><line class="cls-1" x1="727.49" y1="657.77" x2="936.26" y2="798.73"/><line class="cls-1" x1="295.79" y1="371.17" x2="84.84" y2="233.49"/><line class="cls-1" x1="731.91" y1="650.99" x2="944.99" y2="785.36"/><line class="cls-1" x1="291.47" y1="378.02" x2="76.32" y2="247"/><line class="cls-1" x1="736.12" y1="644.07" x2="953.3" y2="771.72"/><line class="cls-1" x1="287.37" y1="385.01" x2="68.23" y2="260.77"/><line class="cls-1" x1="740.12" y1="637.02" x2="961.18" y2="757.82"/><line class="cls-1" x1="283.48" y1="392.11" x2="60.57" y2="274.79"/><line class="cls-1" x1="743.89" y1="629.86" x2="968.61" y2="743.69"/><line class="cls-1" x1="279.83" y1="399.34" x2="53.35" y2="289.03"/><line class="cls-1" x1="747.44" y1="622.58" x2="975.61" y2="729.33"/><line class="cls-1" x1="276.39" y1="406.67" x2="46.58" y2="303.5"/><line class="cls-1" x1="750.75" y1="615.19" x2="982.15" y2="714.76"/><line class="cls-1" x1="273.19" y1="414.11" x2="40.27" y2="318.17"/><line class="cls-1" x1="753.84" y1="607.7" x2="988.23" y2="699.99"/><line class="cls-1" x1="270.23" y1="421.65" x2="34.42" y2="333.03"/><line class="cls-1" x1="756.68" y1="600.12" x2="993.85" y2="685.04"/><line class="cls-1" x1="267.5" y1="429.27" x2="29.03" y2="348.07"/><line class="cls-1" x1="759.3" y1="592.46" x2="999" y2="669.92"/><line class="cls-1" x1="265.01" y1="436.98" x2="24.12" y2="363.27"/><line class="cls-1" x1="761.66" y1="584.71" x2="1003.67" y2="654.65"/><line class="cls-1" x1="262.76" y1="444.75" x2="19.69" y2="378.61"/><line class="cls-1" x1="763.79" y1="576.9" x2="1007.87" y2="639.24"/><line class="cls-1" x1="260.75" y1="452.6" x2="15.74" y2="394.09"/><line class="cls-1" x1="765.67" y1="569.02" x2="1011.58" y2="623.7"/><line class="cls-1" x1="259" y1="460.51" x2="12.27" y2="409.68"/><line class="cls-1" x1="767.31" y1="561.09" x2="1014.8" y2="608.06"/><line class="cls-1" x1="257.49" y1="468.46" x2="9.29" y2="425.37"/><line class="cls-1" x1="768.69" y1="553.11" x2="1017.53" y2="592.32"/><line class="cls-1" x1="256.23" y1="476.46" x2="6.8" y2="441.15"/><line class="cls-1" x1="769.83" y1="545.09" x2="1019.77" y2="576.51"/><line class="cls-1" x1="255.22" y1="484.5" x2="4.81" y2="456.99"/><line class="cls-1" x1="770.71" y1="537.04" x2="1021.51" y2="560.63"/><line class="cls-1" x1="254.46" y1="492.56" x2="3.32" y2="472.89"/><line class="cls-1" x1="771.34" y1="528.97" x2="1022.76" y2="544.71"/><line class="cls-1" x1="253.95" y1="500.64" x2="2.32" y2="488.83"/><line class="cls-1" x1="771.72" y1="520.88" x2="1023.51" y2="528.75"/><line class="cls-1" x1="253.7" y1="508.74" x2="1.82" y2="504.8"/><line class="cls-1" x1="771.85" y1="512.78" x2="1023.76" y2="512.78"/></g></svg>