<svg id="Layer_1" data-name="Layer 1" xmlns="http://www.w3.org/2000/svg" xmlns:xlink="http://www.w3.org/1999/xlink" viewBox="0 0 1024 1024"><defs><style>.cls-1,.cls-3{fill:none;}.cls-2{clip-path:url(#clip-path);}.cls-3{stroke:#fff;stroke-linecap:round;stroke-linejoin:round;stroke-width:2px;}</style><clipPath id="clip-path"><rect class="cls-1" width="1024" height="1024"/></clipPath></defs><g class="cls-2"><path class="cls-3" d="M502.5,253.4,492.4,1.4"/><path class="cls-3" d="M492.4,254.1,472.3,2.6"/><path class="cls-3" d="M482.2,255.1,452.3,4.6"/><path class="cls-3" d="M472.1,256.5,432.4,7.4"/><path class="cls-3" d="M462.1,258.3,412.7,10.9"/><path class="cls-3" d="M452.1,260.5,393,15.2"/><path class="cls-3" d="M442.3,263,373.6,20.3"/><path class="cls-3" d="M422.9,269.4,335.4,32.8"/><path class="cls-3" d="M432.5,266,354.4,26.2"/><path class="cls-3" d="M413.4,273.1l-96.7-233"/><path class="cls-3" d="M404.1,277.2,298.3,48.2"/><path class="cls-3" d="M394.9,281.6,280.2,57"/><path class="cls-3" d="M385.9,286.5,262.5,66.5"/><path class="cls-3" d="M377.1,291.6,245.2,76.6"/><path class="cls-3" d="M368.6,297.1,228.3,87.5"/><path class="cls-3" d="M360.2,303,211.8,99"/><path class="cls-3" d="M352.1,309.2,195.8,111.1"/><path class="cls-3" d="M344.2,315.6,180.3,123.9"/><path class="cls-3" d="M336.6,322.4,165.2,137.2"/><path class="cls-3" d="M329.3,329.5,150.8,151.1"/><path class="cls-3" d="M322.2,336.8,136.9,165.6"/><path class="cls-3" d="M315.5,344.4l-192-163.7"/><path class="cls-3" d="M309,352.3,110.8,196.2"/><path class="cls-3" d="M302.8,360.4,98.7,212.2"/><path class="cls-3" d="M297,368.8,87.2,228.7"/><path class="cls-3" d="M291.5,377.4,76.3,245.6"/><path class="cls-3" d="M286.4,386.2,66.2,263"/><path class="cls-3" d="M281.5,395.1,56.7,280.7"/><path class="cls-3" d="M277.1,404.3,48,298.8"/><path class="cls-3" d="M273,413.7,39.9,317.2"/><path class="cls-3" d="M269.3,423.1,32.6,335.9"/><path class="cls-3" d="M265.9,432.8,26,354.9"/><path class="cls-3" d="M263,442.5,20.2,374.1"/><path class="cls-3" d="M260.4,452.4,15.1,393.5"/><path class="cls-3" d="M258.2,462.4,10.8,413.2"/><path class="cls-3" d="M256.4,472.4,7.3,433"/><path class="cls-3" d="M255,482.5,4.5,452.9"/><path class="cls-3" d="M254,492.6,2.6,472.9"/><path class="cls-3" d="M253.4,502.8l-252-9.9"/><path class="cls-3" d="M253.2,513H1"/><path class="cls-3" d="M253.5,524.3,1.5,535.2"/><path class="cls-3" d="M254.1,534.4,2.8,555.2"/><path class="cls-3" d="M255.1,544.6,4.8,575.2"/><path class="cls-3" d="M256.5,554.7,7.6,595.1"/><path class="cls-3" d="M258.3,564.7,11.2,614.9"/><path class="cls-3" d="M260.5,574.7,15.6,634.5"/><path class="cls-3" d="M263.1,584.5,20.8,653.9"/><path class="cls-3" d="M266.1,594.3,26.7,673.1"/><path class="cls-3" d="M269.5,603.9,33.3,692.1"/><path class="cls-3" d="M273.2,613.4,40.7,710.8"/><path class="cls-3" d="M277.4,622.7,48.8,729.1"/><path class="cls-3" d="M281.8,631.9,57.7,747.2"/><path class="cls-3" d="M286.7,640.9,67.2,764.9"/><path class="cls-3" d="M291.9,649.7,77.4,782.2"/><path class="cls-3" d="M297.4,658.2,88.3,799"/><path class="cls-3" d="M303.2,666.6,99.9,815.5"/><path class="cls-3" d="M309.4,674.7,112.1,831.5"/><path class="cls-3" d="M315.9,682.6l-191,164.3"/><path class="cls-3" d="M322.7,690.2,138.3,861.9"/><path class="cls-3" d="M329.8,697.5,152.3,876.3"/><path class="cls-3" d="M337.2,704.6,166.8,890.2"/><path class="cls-3" d="M344.8,711.3,181.9,903.5"/><path class="cls-3" d="M352.7,717.8,197.4,916.2"/><path class="cls-3" d="M360.9,723.9,213.5,928.3"/><path class="cls-3" d="M369.2,729.8,230,939.7"/><path class="cls-3" d="M377.9,735.2,247,950.5"/><path class="cls-3" d="M386.7,740.4,264.4,960.6"/><path class="cls-3" d="M395.7,745.2,282.1,970"/><path class="cls-3" d="M404.9,749.6,300.2,978.7"/><path class="cls-3" d="M414.2,753.7l-95.6,233"/><path class="cls-3" d="M423.8,757.4,337.4,993.9"/><path class="cls-3" d="M433.4,760.7l-77,239.8"/><path class="cls-3" d="M443.2,763.7l-67.6,242.5"/><path class="cls-3" d="M453.1,766.2l-58,245"/><path class="cls-3" d="M463,768.4l-48.3,247.1"/><path class="cls-3" d="M473.1,770.2,434.5,1019"/><path class="cls-3" d="M483.2,771.5l-28.8,250.1"/><path class="cls-3" d="M493.4,772.5l-19,251"/><path class="cls-3" d="M503.6,773l-9.1,251.7"/><path class="cls-3" d="M514.6,1025l-.8-251.8"/><path class="cls-3" d="M534.7,1024.5,524,773"/><path class="cls-3" d="M554.7,1023.3,534.2,772.4"/><path class="cls-3" d="M574.7,1021.3,544.4,771.4"/><path class="cls-3" d="M594.6,1018.5,554.5,770"/><path class="cls-3" d="M614.4,1014.9,564.5,768.2"/><path class="cls-3" d="M634,1010.5,574.5,766"/><path class="cls-3" d="M653.4,1005.4l-69-242"/><path class="cls-3" d="M672.6,999.5,594.2,760.4"/><path class="cls-3" d="M691.6,992.8,603.8,757"/><path class="cls-3" d="M710.3,985.5l-97-232.2"/><path class="cls-3" d="M728.7,977.4l-106-228.3"/><path class="cls-3" d="M746.7,968.5,631.8,744.7"/><path class="cls-3" d="M764.4,959,640.8,739.8"/><path class="cls-3" d="M781.7,948.8,649.6,734.6"/><path class="cls-3" d="M798.6,938,658.2,729.1"/><path class="cls-3" d="M815,926.4,666.6,723.2"/><path class="cls-3" d="M831,914.2,674.7,717"/><path class="cls-3" d="M846.5,901.5l-163.9-191"/><path class="cls-3" d="M861.5,888.1,690.2,703.7"/><path class="cls-3" d="M876,874.1,697.5,696.6"/><path class="cls-3" d="M889.8,859.6,704.6,689.2"/><path class="cls-3" d="M903.2,844.5,711.4,681.6"/><path class="cls-3" d="M915.9,829,717.8,673.7"/><path class="cls-3" d="M928,812.9,724,665.5"/><path class="cls-3" d="M939.4,796.4,729.8,657.1"/><path class="cls-3" d="M950.2,779.5l-214.9-131"/><path class="cls-3" d="M960.3,762.1,740.5,639.7"/><path class="cls-3" d="M969.7,744.4,745.3,630.7"/><path class="cls-3" d="M978.5,726.3,749.7,621.5"/><path class="cls-3" d="M986.5,707.8,753.8,612.1"/><path class="cls-3" d="M993.8,689.1,757.5,602.6"/><path class="cls-3" d="M1000.3,670.1,760.8,592.9"/><path class="cls-3" d="M1006.1,650.9,763.7,583.1"/><path class="cls-3" d="M1011.1,631.4,766.3,573.2"/><path class="cls-3" d="M1015.4,611.8l-247-48.6"/><path class="cls-3" d="M1018.9,592,770.2,553.2"/><path class="cls-3" d="M1021.6,572.1,771.5,543"/><path class="cls-3" d="M1023.5,552.1l-251-19.2"/><path class="cls-3" d="M1024.7,532l-251.6-9.3"/><path class="cls-3" d="M1025,512l-251.8.5"/><path class="cls-3" d="M1024.6,491.9,773,502.3"/><path class="cls-3" d="M1023.3,471.8,772.4,492.1"/><path class="cls-3" d="M1021.3,451.8l-250,30.1"/><path class="cls-3" d="M1018.5,431.9,769.9,471.8"/><path class="cls-3" d="M1015,412.1,768.1,461.7"/><path class="cls-3" d="M1010.6,392.5,765.9,451.8"/><path class="cls-3" d="M1005.5,373.1,763.3,441.9"/><path class="cls-3" d="M999.7,353.9,760.3,432.1"/><path class="cls-3" d="M993,334.9,757,422.5"/><path class="cls-3" d="M985.7,316.2,753.2,413"/><path class="cls-3" d="M977.6,297.8,749.1,403.7"/><path class="cls-3" d="M968.8,279.8,744.6,394.5"/><path class="cls-3" d="M959.3,262.1,739.7,385.5"/><path class="cls-3" d="M949.1,244.7l-214.6,132"/><path class="cls-3" d="M938.2,227.8,729,368.1"/><path class="cls-3" d="M926.7,211.4,723.2,359.8"/><path class="cls-3" d="M914.6,195.4,717,351.7"/><path class="cls-3" d="M901.8,179.9,710.5,343.8"/><path class="cls-3" d="M888.4,164.9,703.7,336.2"/><path class="cls-3" d="M874.5,150.4,696.6,328.9"/><path class="cls-3" d="M860,136.5,689.2,321.8"/><path class="cls-3" d="M844.9,123.2,681.5,315.1"/><path class="cls-3" d="M829.4,110.5,673.7,308.6"/><path class="cls-3" d="M813.3,98.3,665.5,302.5"/><path class="cls-3" d="M796.8,86.9,657.1,296.6"/><path class="cls-3" d="M779.9,76.1,648.5,291.2"/><path class="cls-3" d="M762.6,65.9,639.7,286"/><path class="cls-3" d="M744.8,56.5,630.7,281.2"/><path class="cls-3" d="M726.8,47.8l-105.3,229"/><path class="cls-3" d="M708.3,39.7l-96.1,233"/><path class="cls-3" d="M689.6,32.4,602.7,269"/><path class="cls-3" d="M670.6,25.9,593,265.7"/><path class="cls-3" d="M651.4,20.1,583.2,262.8"/><path class="cls-3" d="M631.9,15,573.4,260.2"/><path class="cls-3" d="M612.3,10.7,563.4,258.1"/><path class="cls-3" d="M592.5,7.2,553.4,256.3"/><path class="cls-3" d="M572.6,4.5,543.2,254.9"/><path class="cls-3" d="M552.6,2.5,533.1,254"/><path class="cls-3" d="M532.6,1.4l-9.7,252"/><path class="cls-3" d="M512.7,253.2,512.5,1"/></g></svg>