<svg id="rect-w-hole" xmlns="http://www.w3.org/2000/svg" viewBox="0 0 1024 1024"><defs><style>.cls-1{fill:#ccc;}</style></defs><path class="cls-1" d="M512,0C229.23,0,0,229.23,0,512s229.23,512,512,512,512-229.23,512-512S794.77,0,512,0ZM390.77,901.78c-214.59,0-388.55-174-388.55-388.56s174-388.55,388.55-388.55,388.56,174,388.56,388.55S605.37,901.78,390.77,901.78Z"/><path class="cls-1" d="M512,0C229.23,0,0,229.23,0,512s229.23,512,512,512,512-229.23,512-512S794.77,0,512,0ZM390.77,901.78c-214.59,0-388.55-174-388.55-388.56s174-388.55,388.55-388.55,388.56,174,388.56,388.55S605.37,901.78,390.77,901.78Z"/></svg>