<svg width="24" height="24" viewBox="0 0 24 24" fill="none" xmlns="http://www.w3.org/2000/svg">
<path d="M5.16571 9.20005C6.91408 9.20005 8.33142 7.76736 8.33142 6.00005C8.33142 4.23274 6.91408 2.80005 5.16571 2.80005C3.41734 2.80005 2 4.23274 2 6.00005C2 7.76736 3.41734 9.20005 5.16571 9.20005Z" fill="black"/>
<path d="M12.0187 21C13.7671 21 15.1844 19.5673 15.1844 17.8C15.1844 16.0327 13.7671 14.6 12.0187 14.6C10.2704 14.6 8.85303 16.0327 8.85303 17.8C8.85303 19.5673 10.2704 21 12.0187 21Z" fill="black"/>
<path d="M3 18H6" stroke="black" stroke-width="2" stroke-miterlimit="10" stroke-linecap="round" stroke-linejoin="round"/>
<path d="M18 18H21" stroke="black" stroke-width="2" stroke-miterlimit="10" stroke-linecap="round" stroke-linejoin="round"/>
<path d="M10.7056 5.91516L20.9999 5.91516" stroke="black" stroke-width="2" stroke-miterlimit="10" stroke-linecap="round" stroke-linejoin="round"/>
</svg>
