<svg xmlns="http://www.w3.org/2000/svg" viewBox="0 0 1024 1024"><defs><style>.cls-1{fill:none;stroke:#fff;stroke-miterlimit:10;}</style></defs><g id="background"><rect x="0.23" y="0.23" width="1024" height="1024"/></g><g id="_1px" data-name="1px"><line class="cls-1" x1="278.24" y1="513.75" x2="50.25" y2="515.72"/><line class="cls-1" x1="747.2" y1="507.7" x2="975.16" y2="503.78"/><line class="cls-1" x1="278.31" y1="517.77" x2="50.39" y2="523.64"/><line class="cls-1" x1="747.09" y1="503.69" x2="974.96" y2="495.87"/><line class="cls-1" x1="278.45" y1="521.78" x2="50.66" y2="531.55"/><line class="cls-1" x1="746.92" y1="499.68" x2="974.62" y2="487.96"/><line class="cls-1" x1="278.65" y1="525.79" x2="51.06" y2="539.46"/><line class="cls-1" x1="746.68" y1="495.67" x2="974.15" y2="480.05"/><line class="cls-1" x1="278.93" y1="529.8" x2="51.61" y2="547.36"/><line class="cls-1" x1="746.37" y1="491.67" x2="973.54" y2="472.16"/><line class="cls-1" x1="279.27" y1="533.8" x2="52.28" y2="555.25"/><line class="cls-1" x1="745.99" y1="487.67" x2="972.79" y2="464.28"/><line class="cls-1" x1="279.68" y1="537.79" x2="53.1" y2="563.12"/><line class="cls-1" x1="745.55" y1="483.68" x2="971.91" y2="456.41"/><line class="cls-1" x1="280.16" y1="541.77" x2="54.04" y2="570.98"/><line class="cls-1" x1="745.03" y1="479.7" x2="970.9" y2="448.56"/><line class="cls-1" x1="280.71" y1="545.75" x2="55.12" y2="578.83"/><line class="cls-1" x1="744.45" y1="475.73" x2="969.75" y2="440.72"/><line class="cls-1" x1="281.33" y1="549.72" x2="56.34" y2="586.65"/><line class="cls-1" x1="743.8" y1="471.77" x2="968.47" y2="432.91"/><line class="cls-1" x1="282.01" y1="553.67" x2="57.69" y2="594.45"/><line class="cls-1" x1="743.08" y1="467.82" x2="967.05" y2="425.12"/><line class="cls-1" x1="282.77" y1="557.62" x2="59.17" y2="602.23"/><line class="cls-1" x1="742.3" y1="463.88" x2="965.5" y2="417.35"/><line class="cls-1" x1="283.58" y1="561.55" x2="60.79" y2="609.98"/><line class="cls-1" x1="741.44" y1="459.96" x2="963.82" y2="409.62"/><line class="cls-1" x1="284.47" y1="565.46" x2="62.54" y2="617.71"/><line class="cls-1" x1="740.52" y1="456.05" x2="962" y2="401.91"/><line class="cls-1" x1="285.42" y1="569.36" x2="64.42" y2="625.4"/><line class="cls-1" x1="739.54" y1="452.16" x2="960.06" y2="394.23"/><line class="cls-1" x1="286.44" y1="573.25" x2="66.43" y2="633.06"/><line class="cls-1" x1="738.49" y1="448.28" x2="957.98" y2="386.59"/><line class="cls-1" x1="287.53" y1="577.11" x2="68.57" y2="640.68"/><line class="cls-1" x1="737.37" y1="444.43" x2="955.77" y2="378.99"/><line class="cls-1" x1="288.68" y1="580.96" x2="70.84" y2="648.26"/><line class="cls-1" x1="736.18" y1="440.59" x2="953.44" y2="371.42"/><line class="cls-1" x1="289.9" y1="584.78" x2="73.25" y2="655.81"/><line class="cls-1" x1="734.93" y1="436.78" x2="950.97" y2="363.9"/><line class="cls-1" x1="291.18" y1="588.59" x2="75.78" y2="663.31"/><line class="cls-1" x1="733.61" y1="432.98" x2="948.37" y2="356.42"/><line class="cls-1" x1="292.53" y1="592.37" x2="78.44" y2="670.77"/><line class="cls-1" x1="732.23" y1="429.21" x2="945.65" y2="348.98"/><line class="cls-1" x1="293.94" y1="596.13" x2="81.22" y2="678.18"/><line class="cls-1" x1="730.79" y1="425.47" x2="942.8" y2="341.6"/><line class="cls-1" x1="295.42" y1="599.86" x2="84.13" y2="685.54"/><line class="cls-1" x1="729.28" y1="421.75" x2="939.83" y2="334.26"/><line class="cls-1" x1="296.96" y1="603.57" x2="87.17" y2="692.85"/><line class="cls-1" x1="727.71" y1="418.05" x2="936.73" y2="326.97"/><line class="cls-1" x1="298.57" y1="607.25" x2="90.34" y2="700.11"/><line class="cls-1" x1="726.07" y1="414.39" x2="933.5" y2="319.74"/><line class="cls-1" x1="300.23" y1="610.9" x2="93.62" y2="707.32"/><line class="cls-1" x1="724.38" y1="410.75" x2="930.15" y2="312.57"/><line class="cls-1" x1="301.96" y1="614.52" x2="97.03" y2="714.46"/><line class="cls-1" x1="722.62" y1="407.14" x2="926.68" y2="305.45"/><line class="cls-1" x1="303.75" y1="618.12" x2="100.56" y2="721.55"/><line class="cls-1" x1="720.79" y1="403.56" x2="923.09" y2="298.39"/><line class="cls-1" x1="305.6" y1="621.68" x2="104.22" y2="728.57"/><line class="cls-1" x1="718.91" y1="400.02" x2="919.38" y2="291.4"/><line class="cls-1" x1="307.52" y1="625.21" x2="107.99" y2="735.54"/><line class="cls-1" x1="716.97" y1="396.5" x2="915.55" y2="284.47"/><line class="cls-1" x1="309.49" y1="628.7" x2="111.88" y2="742.43"/><line class="cls-1" x1="714.97" y1="393.03" x2="911.6" y2="277.61"/><line class="cls-1" x1="311.52" y1="632.17" x2="115.89" y2="749.26"/><line class="cls-1" x1="712.91" y1="389.58" x2="907.53" y2="270.81"/><line class="cls-1" x1="313.61" y1="635.59" x2="120.01" y2="756.02"/><line class="cls-1" x1="710.78" y1="386.17" x2="903.35" y2="264.09"/><line class="cls-1" x1="315.76" y1="638.98" x2="124.25" y2="762.71"/><line class="cls-1" x1="708.61" y1="382.8" x2="899.05" y2="257.44"/><line class="cls-1" x1="317.97" y1="642.34" x2="128.6" y2="769.32"/><line class="cls-1" x1="706.37" y1="379.47" x2="894.64" y2="250.86"/><line class="cls-1" x1="320.23" y1="645.65" x2="133.07" y2="775.86"/><line class="cls-1" x1="704.08" y1="376.17" x2="890.12" y2="244.36"/><line class="cls-1" x1="322.55" y1="648.93" x2="137.65" y2="782.32"/><line class="cls-1" x1="701.73" y1="372.91" x2="885.49" y2="237.94"/><line class="cls-1" x1="324.93" y1="652.16" x2="142.33" y2="788.7"/><line class="cls-1" x1="699.32" y1="369.7" x2="880.75" y2="231.6"/><line class="cls-1" x1="327.36" y1="655.36" x2="147.13" y2="795"/><line class="cls-1" x1="696.87" y1="366.53" x2="875.9" y2="225.34"/><line class="cls-1" x1="329.85" y1="658.51" x2="152.03" y2="801.22"/><line class="cls-1" x1="694.35" y1="363.39" x2="870.94" y2="219.17"/><line class="cls-1" x1="332.39" y1="661.62" x2="157.04" y2="807.35"/><line class="cls-1" x1="691.79" y1="360.31" x2="865.88" y2="213.08"/><line class="cls-1" x1="334.98" y1="664.68" x2="162.15" y2="813.4"/><line class="cls-1" x1="689.17" y1="357.26" x2="860.71" y2="207.08"/><line class="cls-1" x1="337.62" y1="667.7" x2="167.37" y2="819.35"/><line class="cls-1" x1="686.5" y1="354.27" x2="855.45" y2="201.16"/><line class="cls-1" x1="340.32" y1="670.68" x2="172.69" y2="825.22"/><line class="cls-1" x1="683.78" y1="351.31" x2="850.08" y2="195.34"/><line class="cls-1" x1="343.07" y1="673.61" x2="178.1" y2="831"/><line class="cls-1" x1="681.01" y1="348.41" x2="844.62" y2="189.61"/><line class="cls-1" x1="345.86" y1="676.49" x2="183.62" y2="836.68"/><line class="cls-1" x1="678.19" y1="345.55" x2="839.05" y2="183.98"/><line class="cls-1" x1="348.71" y1="679.32" x2="189.23" y2="842.27"/><line class="cls-1" x1="675.32" y1="342.74" x2="833.39" y2="178.44"/><line class="cls-1" x1="351.6" y1="682.1" x2="194.94" y2="847.76"/><line class="cls-1" x1="672.4" y1="339.99" x2="827.64" y2="173"/><line class="cls-1" x1="354.54" y1="684.84" x2="200.73" y2="853.15"/><line class="cls-1" x1="669.44" y1="337.28" x2="821.8" y2="167.66"/><line class="cls-1" x1="357.53" y1="687.52" x2="206.62" y2="858.44"/><line class="cls-1" x1="666.43" y1="334.62" x2="815.86" y2="162.42"/><line class="cls-1" x1="360.56" y1="690.15" x2="212.6" y2="863.63"/><line class="cls-1" x1="663.37" y1="332.02" x2="809.84" y2="157.28"/><line class="cls-1" x1="363.64" y1="692.73" x2="218.67" y2="868.71"/><line class="cls-1" x1="660.27" y1="329.46" x2="803.72" y2="152.25"/><line class="cls-1" x1="366.76" y1="695.26" x2="224.83" y2="873.69"/><line class="cls-1" x1="657.13" y1="326.96" x2="797.53" y2="147.32"/><line class="cls-1" x1="369.92" y1="697.73" x2="231.07" y2="878.57"/><line class="cls-1" x1="653.95" y1="324.52" x2="791.25" y2="142.5"/><line class="cls-1" x1="373.12" y1="700.15" x2="237.39" y2="883.34"/><line class="cls-1" x1="650.72" y1="322.13" x2="784.89" y2="137.78"/><line class="cls-1" x1="376.37" y1="702.51" x2="243.79" y2="888"/><line class="cls-1" x1="647.46" y1="319.79" x2="778.44" y2="133.18"/><line class="cls-1" x1="379.66" y1="704.82" x2="250.27" y2="892.55"/><line class="cls-1" x1="644.15" y1="317.52" x2="771.92" y2="128.68"/><line class="cls-1" x1="382.98" y1="707.07" x2="256.83" y2="896.98"/><line class="cls-1" x1="640.81" y1="315.3" x2="765.33" y2="124.3"/><line class="cls-1" x1="386.34" y1="709.26" x2="263.46" y2="901.31"/><line class="cls-1" x1="637.42" y1="313.13" x2="758.66" y2="120.04"/><line class="cls-1" x1="389.74" y1="711.39" x2="270.17" y2="905.52"/><line class="cls-1" x1="634.01" y1="311.03" x2="751.92" y2="115.88"/><line class="cls-1" x1="393.18" y1="713.47" x2="276.94" y2="909.61"/><line class="cls-1" x1="630.55" y1="308.98" x2="745.11" y2="111.85"/><line class="cls-1" x1="396.65" y1="715.49" x2="283.79" y2="913.59"/><line class="cls-1" x1="627.06" y1="306.99" x2="738.23" y2="107.93"/><line class="cls-1" x1="400.16" y1="717.44" x2="290.7" y2="917.45"/><line class="cls-1" x1="623.54" y1="305.06" x2="731.28" y2="104.13"/><line class="cls-1" x1="403.7" y1="719.34" x2="297.68" y2="921.19"/><line class="cls-1" x1="619.99" y1="303.2" x2="724.27" y2="100.44"/><line class="cls-1" x1="407.27" y1="721.18" x2="304.72" y2="924.82"/><line class="cls-1" x1="616.4" y1="301.39" x2="717.2" y2="96.88"/><line class="cls-1" x1="410.87" y1="722.95" x2="311.82" y2="928.32"/><line class="cls-1" x1="612.79" y1="299.65" x2="710.07" y2="93.44"/><line class="cls-1" x1="414.5" y1="724.66" x2="318.98" y2="931.69"/><line class="cls-1" x1="609.14" y1="297.97" x2="702.88" y2="90.13"/><line class="cls-1" x1="418.16" y1="726.31" x2="326.2" y2="934.95"/><line class="cls-1" x1="605.47" y1="296.35" x2="695.63" y2="86.93"/><line class="cls-1" x1="421.84" y1="727.9" x2="333.48" y2="938.08"/><line class="cls-1" x1="601.77" y1="294.79" x2="688.33" y2="83.86"/><line class="cls-1" x1="425.56" y1="729.43" x2="340.8" y2="941.09"/><line class="cls-1" x1="598.04" y1="293.3" x2="680.98" y2="80.92"/><line class="cls-1" x1="429.3" y1="730.89" x2="348.18" y2="943.97"/><line class="cls-1" x1="594.29" y1="291.87" x2="673.58" y2="78.1"/><line class="cls-1" x1="433.06" y1="732.28" x2="355.6" y2="946.72"/><line class="cls-1" x1="590.51" y1="290.51" x2="666.14" y2="75.41"/><line class="cls-1" x1="436.85" y1="733.61" x2="363.07" y2="949.35"/><line class="cls-1" x1="586.71" y1="289.21" x2="658.64" y2="72.85"/><line class="cls-1" x1="440.66" y1="734.88" x2="370.58" y2="951.85"/><line class="cls-1" x1="582.89" y1="287.97" x2="651.11" y2="70.42"/><line class="cls-1" x1="444.49" y1="736.08" x2="378.14" y2="954.21"/><line class="cls-1" x1="579.05" y1="286.81" x2="643.53" y2="68.11"/><line class="cls-1" x1="448.34" y1="737.22" x2="385.73" y2="956.45"/><line class="cls-1" x1="575.19" y1="285.7" x2="635.92" y2="65.94"/><line class="cls-1" x1="452.21" y1="738.29" x2="393.36" y2="958.56"/><line class="cls-1" x1="571.31" y1="284.67" x2="628.27" y2="63.9"/><line class="cls-1" x1="456.1" y1="739.29" x2="401.03" y2="960.54"/><line class="cls-1" x1="567.42" y1="283.7" x2="620.59" y2="61.98"/><line class="cls-1" x1="460" y1="740.23" x2="408.73" y2="962.39"/><line class="cls-1" x1="563.51" y1="282.79" x2="612.87" y2="60.2"/><line class="cls-1" x1="463.92" y1="741.1" x2="416.46" y2="964.1"/><line class="cls-1" x1="559.58" y1="281.96" x2="605.13" y2="58.56"/><line class="cls-1" x1="467.85" y1="741.9" x2="424.22" y2="965.68"/><line class="cls-1" x1="555.64" y1="281.19" x2="597.36" y2="57.04"/><line class="cls-1" x1="471.8" y1="742.63" x2="432" y2="967.13"/><line class="cls-1" x1="551.69" y1="280.49" x2="589.56" y2="55.66"/><line class="cls-1" x1="475.76" y1="743.3" x2="439.81" y2="968.45"/><line class="cls-1" x1="547.72" y1="279.86" x2="581.74" y2="54.41"/><line class="cls-1" x1="479.73" y1="743.9" x2="447.64" y2="969.63"/><line class="cls-1" x1="543.75" y1="279.29" x2="573.9" y2="53.29"/><line class="cls-1" x1="483.71" y1="744.43" x2="455.49" y2="970.68"/><line class="cls-1" x1="539.76" y1="278.8" x2="566.04" y2="52.31"/><line class="cls-1" x1="487.7" y1="744.89" x2="463.35" y2="971.59"/><line class="cls-1" x1="535.77" y1="278.37" x2="558.17" y2="51.47"/><line class="cls-1" x1="491.69" y1="745.29" x2="471.23" y2="972.37"/><line class="cls-1" x1="531.77" y1="278.01" x2="550.29" y2="50.76"/><line class="cls-1" x1="495.69" y1="745.61" x2="479.13" y2="973.01"/><line class="cls-1" x1="527.77" y1="277.71" x2="542.39" y2="50.18"/><line class="cls-1" x1="499.7" y1="745.87" x2="487.03" y2="973.52"/><line class="cls-1" x1="523.76" y1="277.49" x2="534.48" y2="49.74"/><line class="cls-1" x1="503.71" y1="746.06" x2="494.94" y2="973.89"/><line class="cls-1" x1="519.75" y1="277.34" x2="526.57" y2="49.44"/><line class="cls-1" x1="507.72" y1="746.18" x2="502.85" y2="974.13"/><line class="cls-1" x1="515.74" y1="277.25" x2="518.66" y2="49.27"/><line class="cls-1" x1="511.74" y1="746.23" x2="510.77" y2="974.23"/><line class="cls-1" x1="511.72" y1="277.23" x2="510.74" y2="49.24"/><line class="cls-1" x1="515.75" y1="746.21" x2="518.69" y2="974.19"/><line class="cls-1" x1="507.71" y1="277.29" x2="502.82" y2="49.34"/><line class="cls-1" x1="519.76" y1="746.13" x2="526.6" y2="974.02"/><line class="cls-1" x1="503.69" y1="277.41" x2="494.91" y2="49.58"/><line class="cls-1" x1="523.78" y1="745.97" x2="534.51" y2="973.72"/><line class="cls-1" x1="499.68" y1="277.6" x2="487" y2="49.95"/><line class="cls-1" x1="527.78" y1="745.75" x2="542.42" y2="973.28"/><line class="cls-1" x1="495.68" y1="277.85" x2="479.09" y2="50.46"/><line class="cls-1" x1="531.79" y1="745.46" x2="550.32" y2="972.7"/><line class="cls-1" x1="491.68" y1="278.18" x2="471.2" y2="51.1"/><line class="cls-1" x1="535.79" y1="745.1" x2="558.2" y2="971.99"/><line class="cls-1" x1="487.68" y1="278.57" x2="463.32" y2="51.88"/><line class="cls-1" x1="539.78" y1="744.67" x2="566.07" y2="971.15"/><line class="cls-1" x1="483.69" y1="279.04" x2="455.46" y2="52.79"/><line class="cls-1" x1="543.76" y1="744.17" x2="573.93" y2="970.17"/><line class="cls-1" x1="479.71" y1="279.57" x2="447.61" y2="53.84"/><line class="cls-1" x1="547.74" y1="743.6" x2="581.77" y2="969.05"/><line class="cls-1" x1="475.74" y1="280.17" x2="439.78" y2="55.02"/><line class="cls-1" x1="551.7" y1="742.97" x2="589.59" y2="967.8"/><line class="cls-1" x1="471.79" y1="280.83" x2="431.97" y2="56.34"/><line class="cls-1" x1="555.65" y1="742.27" x2="597.39" y2="966.42"/><line class="cls-1" x1="467.84" y1="281.57" x2="424.19" y2="57.79"/><line class="cls-1" x1="559.59" y1="741.5" x2="605.16" y2="964.9"/><line class="cls-1" x1="463.9" y1="282.37" x2="416.43" y2="59.37"/><line class="cls-1" x1="563.52" y1="740.67" x2="612.9" y2="963.25"/><line class="cls-1" x1="459.99" y1="283.24" x2="408.7" y2="61.08"/><line class="cls-1" x1="567.43" y1="739.76" x2="620.62" y2="961.47"/><line class="cls-1" x1="456.08" y1="284.18" x2="401" y2="62.93"/><line class="cls-1" x1="571.33" y1="738.79" x2="628.3" y2="959.56"/><line class="cls-1" x1="452.19" y1="285.18" x2="393.33" y2="64.91"/><line class="cls-1" x1="575.21" y1="737.76" x2="635.95" y2="957.52"/><line class="cls-1" x1="448.32" y1="286.25" x2="385.7" y2="67.02"/><line class="cls-1" x1="579.07" y1="736.65" x2="643.56" y2="955.34"/><line class="cls-1" x1="444.47" y1="287.39" x2="378.11" y2="69.26"/><line class="cls-1" x1="582.91" y1="735.49" x2="651.14" y2="953.04"/><line class="cls-1" x1="440.64" y1="288.59" x2="370.55" y2="71.63"/><line class="cls-1" x1="586.73" y1="734.25" x2="658.67" y2="950.6"/><line class="cls-1" x1="436.83" y1="289.85" x2="363.04" y2="74.13"/><line class="cls-1" x1="590.53" y1="732.95" x2="666.16" y2="948.04"/><line class="cls-1" x1="433.05" y1="291.19" x2="355.57" y2="76.75"/><line class="cls-1" x1="594.3" y1="731.59" x2="673.61" y2="945.35"/><line class="cls-1" x1="429.28" y1="292.58" x2="348.15" y2="79.51"/><line class="cls-1" x1="598.05" y1="730.16" x2="681.01" y2="942.53"/><line class="cls-1" x1="425.54" y1="294.04" x2="340.77" y2="82.39"/><line class="cls-1" x1="601.78" y1="728.67" x2="688.36" y2="939.59"/><line class="cls-1" x1="421.83" y1="295.57" x2="333.45" y2="85.4"/><line class="cls-1" x1="605.48" y1="727.11" x2="695.66" y2="936.52"/><line class="cls-1" x1="418.14" y1="297.16" x2="326.17" y2="88.53"/><line class="cls-1" x1="609.15" y1="725.49" x2="702.91" y2="933.32"/><line class="cls-1" x1="414.48" y1="298.81" x2="318.96" y2="91.78"/><line class="cls-1" x1="612.8" y1="723.81" x2="710.09" y2="930.01"/><line class="cls-1" x1="410.85" y1="300.52" x2="311.8" y2="95.16"/><line class="cls-1" x1="616.42" y1="722.06" x2="717.23" y2="926.57"/><line class="cls-1" x1="407.25" y1="302.29" x2="304.69" y2="98.66"/><line class="cls-1" x1="620" y1="720.26" x2="724.3" y2="923.01"/><line class="cls-1" x1="403.68" y1="304.13" x2="297.65" y2="102.28"/><line class="cls-1" x1="623.56" y1="718.39" x2="731.31" y2="919.32"/><line class="cls-1" x1="400.14" y1="306.03" x2="290.68" y2="106.03"/><line class="cls-1" x1="627.08" y1="716.46" x2="738.25" y2="915.52"/><line class="cls-1" x1="396.64" y1="307.99" x2="283.76" y2="109.89"/><line class="cls-1" x1="630.57" y1="714.48" x2="745.13" y2="911.6"/><line class="cls-1" x1="393.17" y1="310" x2="276.92" y2="113.87"/><line class="cls-1" x1="634.02" y1="712.43" x2="751.94" y2="907.57"/><line class="cls-1" x1="389.73" y1="312.08" x2="270.14" y2="117.96"/><line class="cls-1" x1="637.44" y1="710.32" x2="758.69" y2="903.41"/><line class="cls-1" x1="386.33" y1="314.21" x2="263.43" y2="122.17"/><line class="cls-1" x1="640.82" y1="708.16" x2="765.35" y2="899.14"/><line class="cls-1" x1="382.97" y1="316.41" x2="256.8" y2="126.5"/><line class="cls-1" x1="644.16" y1="705.94" x2="771.95" y2="894.76"/><line class="cls-1" x1="379.64" y1="318.66" x2="250.25" y2="130.93"/><line class="cls-1" x1="647.47" y1="703.66" x2="778.47" y2="890.27"/><line class="cls-1" x1="376.36" y1="320.96" x2="243.76" y2="135.48"/><line class="cls-1" x1="650.73" y1="701.33" x2="784.91" y2="885.66"/><line class="cls-1" x1="373.11" y1="323.33" x2="237.36" y2="140.14"/><line class="cls-1" x1="653.96" y1="698.94" x2="791.27" y2="880.95"/><line class="cls-1" x1="369.91" y1="325.74" x2="231.04" y2="144.91"/><line class="cls-1" x1="657.14" y1="696.49" x2="797.55" y2="876.13"/><line class="cls-1" x1="366.74" y1="328.22" x2="224.8" y2="149.79"/><line class="cls-1" x1="660.29" y1="693.99" x2="803.75" y2="871.2"/><line class="cls-1" x1="363.62" y1="330.74" x2="218.65" y2="154.77"/><line class="cls-1" x1="663.38" y1="691.44" x2="809.86" y2="866.16"/><line class="cls-1" x1="360.55" y1="333.32" x2="212.58" y2="159.86"/><line class="cls-1" x1="666.44" y1="688.83" x2="815.88" y2="861.02"/><line class="cls-1" x1="357.52" y1="335.95" x2="206.6" y2="165.05"/><line class="cls-1" x1="669.45" y1="686.18" x2="821.82" y2="855.78"/><line class="cls-1" x1="354.53" y1="338.64" x2="200.71" y2="170.34"/><line class="cls-1" x1="672.41" y1="683.47" x2="827.66" y2="850.44"/><line class="cls-1" x1="351.59" y1="341.37" x2="194.91" y2="175.73"/><line class="cls-1" x1="675.33" y1="680.71" x2="833.42" y2="845"/><line class="cls-1" x1="348.7" y1="344.15" x2="189.21" y2="181.22"/><line class="cls-1" x1="678.2" y1="677.9" x2="839.07" y2="839.46"/><line class="cls-1" x1="345.85" y1="346.99" x2="183.6" y2="186.81"/><line class="cls-1" x1="681.02" y1="675.04" x2="844.64" y2="833.83"/><line class="cls-1" x1="343.06" y1="349.87" x2="178.08" y2="192.49"/><line class="cls-1" x1="683.79" y1="672.14" x2="850.1" y2="828.1"/><line class="cls-1" x1="340.31" y1="352.8" x2="172.67" y2="198.26"/><line class="cls-1" x1="686.51" y1="669.19" x2="855.47" y2="822.28"/><line class="cls-1" x1="337.61" y1="355.77" x2="167.35" y2="204.13"/><line class="cls-1" x1="689.18" y1="666.19" x2="860.73" y2="816.36"/><line class="cls-1" x1="334.97" y1="358.79" x2="162.13" y2="210.09"/><line class="cls-1" x1="691.8" y1="663.15" x2="865.9" y2="810.36"/><line class="cls-1" x1="332.38" y1="361.86" x2="157.02" y2="216.14"/><line class="cls-1" x1="694.36" y1="660.06" x2="870.96" y2="804.27"/><line class="cls-1" x1="329.84" y1="364.97" x2="152.01" y2="222.27"/><line class="cls-1" x1="696.88" y1="656.93" x2="875.91" y2="798.1"/><line class="cls-1" x1="327.35" y1="368.12" x2="147.11" y2="228.49"/><line class="cls-1" x1="699.33" y1="653.75" x2="880.76" y2="791.84"/><line class="cls-1" x1="324.92" y1="371.31" x2="142.32" y2="234.79"/><line class="cls-1" x1="701.74" y1="650.54" x2="885.5" y2="785.5"/><line class="cls-1" x1="322.54" y1="374.55" x2="137.63" y2="241.17"/><line class="cls-1" x1="704.09" y1="647.28" x2="890.14" y2="779.07"/><line class="cls-1" x1="320.22" y1="377.83" x2="133.05" y2="247.63"/><line class="cls-1" x1="706.38" y1="643.99" x2="894.66" y2="772.57"/><line class="cls-1" x1="317.96" y1="381.14" x2="128.59" y2="254.17"/><line class="cls-1" x1="708.61" y1="640.65" x2="899.07" y2="766"/><line class="cls-1" x1="315.75" y1="384.49" x2="124.23" y2="260.78"/><line class="cls-1" x1="710.79" y1="637.28" x2="903.36" y2="759.35"/><line class="cls-1" x1="313.6" y1="387.88" x2="119.99" y2="267.47"/><line class="cls-1" x1="712.91" y1="633.87" x2="907.55" y2="752.62"/><line class="cls-1" x1="311.51" y1="391.31" x2="115.87" y2="274.23"/><line class="cls-1" x1="714.97" y1="630.43" x2="911.61" y2="745.83"/><line class="cls-1" x1="309.48" y1="394.77" x2="111.86" y2="281.06"/><line class="cls-1" x1="716.98" y1="626.95" x2="915.56" y2="738.97"/><line class="cls-1" x1="307.51" y1="398.27" x2="107.97" y2="287.95"/><line class="cls-1" x1="718.92" y1="623.43" x2="919.39" y2="732.04"/><line class="cls-1" x1="305.6" y1="401.8" x2="104.2" y2="294.92"/><line class="cls-1" x1="720.8" y1="619.89" x2="923.1" y2="725.04"/><line class="cls-1" x1="303.74" y1="405.36" x2="100.55" y2="301.94"/><line class="cls-1" x1="722.62" y1="616.31" x2="926.7" y2="717.99"/><line class="cls-1" x1="301.95" y1="408.96" x2="97.02" y2="309.03"/><line class="cls-1" x1="724.38" y1="612.7" x2="930.17" y2="710.87"/><line class="cls-1" x1="300.23" y1="412.58" x2="93.61" y2="316.18"/><line class="cls-1" x1="726.08" y1="609.06" x2="933.51" y2="703.69"/><line class="cls-1" x1="298.56" y1="416.23" x2="90.32" y2="323.38"/><line class="cls-1" x1="727.71" y1="605.4" x2="936.74" y2="696.46"/><line class="cls-1" x1="296.96" y1="419.91" x2="87.16" y2="330.64"/><line class="cls-1" x1="729.29" y1="601.7" x2="939.84" y2="689.18"/><line class="cls-1" x1="295.42" y1="423.62" x2="84.12" y2="337.95"/><line class="cls-1" x1="730.79" y1="597.98" x2="942.81" y2="681.84"/><line class="cls-1" x1="293.94" y1="427.35" x2="81.21" y2="345.31"/><line class="cls-1" x1="732.24" y1="594.24" x2="945.66" y2="674.45"/><line class="cls-1" x1="292.53" y1="431.11" x2="78.42" y2="352.72"/><line class="cls-1" x1="733.62" y1="590.47" x2="948.38" y2="667.02"/><line class="cls-1" x1="291.18" y1="434.89" x2="75.77" y2="360.18"/><line class="cls-1" x1="734.94" y1="586.67" x2="950.98" y2="659.54"/><line class="cls-1" x1="289.9" y1="438.7" x2="73.24" y2="367.69"/><line class="cls-1" x1="736.19" y1="582.86" x2="953.45" y2="652.01"/><line class="cls-1" x1="288.68" y1="442.52" x2="70.83" y2="375.23"/><line class="cls-1" x1="737.37" y1="579.02" x2="955.78" y2="644.45"/><line class="cls-1" x1="287.53" y1="446.37" x2="68.56" y2="382.82"/><line class="cls-1" x1="738.49" y1="575.17" x2="957.99" y2="636.84"/><line class="cls-1" x1="286.44" y1="450.23" x2="66.42" y2="390.44"/><line class="cls-1" x1="739.54" y1="571.29" x2="960.07" y2="629.2"/><line class="cls-1" x1="285.42" y1="454.12" x2="64.41" y2="398.1"/><line class="cls-1" x1="740.53" y1="567.4" x2="962.01" y2="621.53"/><line class="cls-1" x1="284.47" y1="458.02" x2="62.53" y2="405.79"/><line class="cls-1" x1="741.45" y1="563.49" x2="963.82" y2="613.82"/><line class="cls-1" x1="283.58" y1="461.93" x2="60.78" y2="413.51"/><line class="cls-1" x1="742.3" y1="559.57" x2="965.51" y2="606.08"/><line class="cls-1" x1="282.76" y1="465.86" x2="59.17" y2="421.26"/><line class="cls-1" x1="743.09" y1="555.63" x2="967.06" y2="598.32"/><line class="cls-1" x1="282.01" y1="469.8" x2="57.68" y2="429.04"/><line class="cls-1" x1="743.8" y1="551.68" x2="968.47" y2="590.53"/><line class="cls-1" x1="281.33" y1="473.76" x2="56.34" y2="436.84"/><line class="cls-1" x1="744.45" y1="547.72" x2="969.75" y2="582.71"/><line class="cls-1" x1="280.71" y1="477.73" x2="55.12" y2="444.67"/><line class="cls-1" x1="745.04" y1="543.75" x2="970.9" y2="574.88"/><line class="cls-1" x1="280.16" y1="481.7" x2="54.04" y2="452.51"/><line class="cls-1" x1="745.55" y1="539.77" x2="971.91" y2="567.03"/><line class="cls-1" x1="279.68" y1="485.69" x2="53.09" y2="460.37"/><line class="cls-1" x1="746" y1="535.78" x2="972.79" y2="559.16"/><line class="cls-1" x1="279.27" y1="489.68" x2="52.28" y2="468.25"/><line class="cls-1" x1="746.37" y1="531.78" x2="973.54" y2="551.27"/><line class="cls-1" x1="278.93" y1="493.68" x2="51.6" y2="476.14"/><line class="cls-1" x1="746.68" y1="527.78" x2="974.15" y2="543.38"/><line class="cls-1" x1="278.65" y1="497.69" x2="51.06" y2="484.04"/><line class="cls-1" x1="746.92" y1="523.77" x2="974.62" y2="535.48"/><line class="cls-1" x1="278.45" y1="501.7" x2="50.66" y2="491.94"/><line class="cls-1" x1="747.09" y1="519.76" x2="974.96" y2="527.56"/><line class="cls-1" x1="278.31" y1="505.71" x2="50.38" y2="499.86"/><line class="cls-1" x1="747.2" y1="515.75" x2="975.16" y2="519.65"/><line class="cls-1" x1="278.24" y1="509.72" x2="50.25" y2="507.77"/><line class="cls-1" x1="747.23" y1="511.73" x2="975.23" y2="511.73"/></g></svg>