<svg width="16" height="16" viewBox="0 0 16 16" fill="none" xmlns="http://www.w3.org/2000/svg">
<path d="M6.37805 9.39551C6.44309 9.53015 6.52846 9.66854 6.63415 9.81066C6.74797 9.9453 6.88211 10.0687 7.03659 10.1809C7.19919 10.2931 7.38618 10.3866 7.59756 10.4614C7.80894 10.5288 8.04472 10.5624 8.30488 10.5624C8.57317 10.5624 8.81301 10.5213 9.02439 10.439C9.2439 10.3492 9.42683 10.2333 9.57317 10.0912C9.72764 9.94156 9.84553 9.76952 9.92683 9.57503C10.0081 9.37307 10.0488 9.15989 10.0488 8.93548C10.0488 8.5914 9.95122 8.31837 9.7561 8.11641C9.56911 7.91445 9.33333 7.74614 9.04878 7.6115C8.76423 7.47686 8.45528 7.35344 8.12195 7.24123C7.79675 7.12903 7.49187 6.99065 7.20732 6.82609C6.92276 6.65404 6.68293 6.43712 6.4878 6.17531C6.30081 5.91351 6.20732 5.56194 6.20732 5.12062C6.20732 4.80645 6.26829 4.52221 6.39024 4.26788C6.5122 4.00608 6.68699 3.78167 6.91463 3.59467C7.15041 3.40767 7.43089 3.2618 7.7561 3.15708C8.0813 3.05236 8.44715 3 8.85366 3C9.2439 3 9.5813 3.04488 9.86585 3.13464C10.1504 3.21692 10.4146 3.34783 10.6585 3.52735C10.5854 3.65451 10.5244 3.78915 10.4756 3.93128C10.4268 4.0734 10.378 4.25292 10.3293 4.46985H10.1829C10.1423 4.36512 10.0854 4.25292 10.0122 4.13324C9.94715 4.00608 9.85366 3.89014 9.73171 3.78541C9.61789 3.68069 9.47967 3.59467 9.31707 3.52735C9.15447 3.45255 8.95935 3.41515 8.73171 3.41515C8.50407 3.41515 8.29268 3.44881 8.09756 3.51613C7.91057 3.58345 7.7439 3.68069 7.59756 3.80785C7.45935 3.92754 7.34959 4.0734 7.26829 4.24544C7.19512 4.41748 7.15854 4.60449 7.15854 4.80645C7.15854 5.15802 7.25203 5.43478 7.43902 5.63675C7.63415 5.83871 7.87398 6.01075 8.15854 6.15287C8.44309 6.28752 8.74797 6.41094 9.07317 6.52314C9.4065 6.62786 9.71545 6.75877 10 6.91585C10.2846 7.07293 10.5203 7.27489 10.7073 7.52174C10.9024 7.76858 11 8.09771 11 8.50912C11 8.8532 10.9309 9.17859 10.7927 9.48527C10.6626 9.79196 10.4675 10.0612 10.2073 10.2931C9.95528 10.5175 9.64228 10.6933 9.26829 10.8205C8.90244 10.9402 8.48374 11 8.0122 11C7.50813 11 7.09756 10.9402 6.78049 10.8205C6.47154 10.6933 6.21138 10.5512 6 10.3941C6.07317 10.2221 6.12195 10.0687 6.14634 9.93408C6.17886 9.79196 6.20732 9.61244 6.23171 9.39551H6.37805Z" fill="white"/>
</svg>
