<svg width="16" height="16" viewBox="0 0 16 16" fill="none" xmlns="http://www.w3.org/2000/svg">
<path d="M5.27787 9.3286C5.30975 9.92038 5.4441 10.4009 5.68092 10.7702C6.1318 11.4614 6.92652 11.807 8.06509 11.807C8.57517 11.807 9.03971 11.7312 9.45871 11.5797C10.2694 11.2862 10.6747 10.7607 10.6747 10.0032C10.6747 9.43512 10.5039 9.03034 10.1623 8.7889C9.81622 8.55218 9.27426 8.34624 8.53646 8.17108L7.17701 7.85152C6.28892 7.64321 5.66043 7.4136 5.29153 7.16269C4.65393 6.72714 4.33513 6.07618 4.33513 5.20981C4.33513 4.27243 4.6471 3.50312 5.27104 2.90187C5.89497 2.30062 6.77851 2 7.92163 2C8.97367 2 9.86632 2.26512 10.5996 2.79535C11.3374 3.32085 11.7062 4.16355 11.7062 5.32343H10.4288C10.3605 4.76479 10.2147 4.33635 9.99156 4.03809C9.57712 3.49365 8.87348 3.22143 7.88064 3.22143C7.07909 3.22143 6.50297 3.3966 6.15229 3.74693C5.80161 4.09727 5.62627 4.50441 5.62627 4.96837C5.62627 5.47966 5.83121 5.85367 6.2411 6.09038C6.5098 6.24188 7.1178 6.43125 8.06509 6.65849L9.47237 6.99225C10.151 7.15322 10.6747 7.37336 11.0436 7.65268C11.6812 8.14031 12 8.84807 12 9.77598C12 10.9311 11.5947 11.7573 10.784 12.2544C9.9779 12.7515 9.03971 13 7.96945 13C6.72158 13 5.74468 12.6686 5.03877 12.0058C4.33285 11.3478 3.98673 10.4553 4.00039 9.3286H5.27787Z" fill="white"/>
</svg>
