<svg width="16" height="16" viewBox="0 0 16 16" fill="none" xmlns="http://www.w3.org/2000/svg">
<path d="M10.7188 5.38477H8.42773V4.68164C8.42773 4.35352 8.39844 4.14453 8.33984 4.05469C8.28125 3.96484 8.18359 3.91992 8.04688 3.91992C7.89844 3.91992 7.78516 3.98047 7.70703 4.10156C7.63281 4.22266 7.5957 4.40625 7.5957 4.65234C7.5957 4.96875 7.63867 5.20703 7.72461 5.36719C7.80664 5.52734 8.03906 5.7207 8.42188 5.94727C9.51953 6.59961 10.2109 7.13477 10.4961 7.55273C10.7812 7.9707 10.9238 8.64453 10.9238 9.57422C10.9238 10.25 10.8438 10.748 10.6836 11.0684C10.5273 11.3887 10.2227 11.6582 9.76953 11.877C9.31641 12.0918 8.78906 12.1992 8.1875 12.1992C7.52734 12.1992 6.96289 12.0742 6.49414 11.8242C6.0293 11.5742 5.72461 11.2559 5.58008 10.8691C5.43555 10.4824 5.36328 9.93359 5.36328 9.22266V8.60156H7.6543V9.75586C7.6543 10.1113 7.68555 10.3398 7.74805 10.4414C7.81445 10.543 7.92969 10.5938 8.09375 10.5938C8.25781 10.5938 8.37891 10.5293 8.45703 10.4004C8.53906 10.2715 8.58008 10.0801 8.58008 9.82617C8.58008 9.26758 8.50391 8.90234 8.35156 8.73047C8.19531 8.55859 7.81055 8.27148 7.19727 7.86914C6.58398 7.46289 6.17773 7.16797 5.97852 6.98438C5.7793 6.80078 5.61328 6.54688 5.48047 6.22266C5.35156 5.89844 5.28711 5.48438 5.28711 4.98047C5.28711 4.25391 5.37891 3.72266 5.5625 3.38672C5.75 3.05078 6.05078 2.78906 6.46484 2.60156C6.87891 2.41016 7.37891 2.31445 7.96484 2.31445C8.60547 2.31445 9.15039 2.41797 9.59961 2.625C10.0527 2.83203 10.3516 3.09375 10.4961 3.41016C10.6445 3.72266 10.7188 4.25586 10.7188 5.00977V5.38477Z" fill="white"/>
</svg>
