<svg width="16" height="16" viewBox="0 0 16 16" fill="none" xmlns="http://www.w3.org/2000/svg">
<path d="M12.5057 2.0343C12.682 2.01143 12.7778 2 12.7931 2C12.8084 2 12.864 2.00191 12.9598 2.00572C13.0556 2.00953 13.1034 2.01906 13.1034 2.0343C13.1034 2.05336 13.0958 2.08194 13.0805 2.12006C13.0766 2.12768 13.0747 2.1353 13.0747 2.14293C13.0747 2.1696 13.0996 2.18866 13.1494 2.2001C13.2107 2.21534 13.2414 2.23249 13.2414 2.25155C13.2414 2.27442 13.2337 2.30491 13.2184 2.34302C13.2107 2.36208 13.2069 2.37542 13.2069 2.38304C13.2069 2.39447 13.2107 2.40019 13.2184 2.40019C13.2337 2.40019 13.3333 2.39257 13.5172 2.37732C13.705 2.36208 13.9847 2.32778 14.3563 2.27442C14.6782 2.23249 14.8582 2.21153 14.8966 2.21153H14.908V2.24583C14.908 2.26108 14.8851 2.2687 14.8391 2.2687C14.7893 2.2687 14.7644 2.27061 14.7644 2.27442C14.7644 2.28204 14.8046 2.28585 14.8851 2.28585C14.9617 2.28585 15 2.303 15 2.3373C15 2.37161 14.5402 2.52787 13.6207 2.8061C12.705 3.08051 11.4119 3.41401 9.74138 3.80657C8.07471 4.19533 7.22988 4.38971 7.2069 4.38971H7.20115C7.20115 4.40877 7.34483 4.52501 7.63218 4.73845C7.94253 4.97094 8.52874 5.3292 9.3908 5.81324C10.2529 6.29728 10.8084 6.6403 11.0575 6.84231C11.3103 7.04431 11.5402 7.18533 11.7471 7.26536C11.954 7.3454 12.0709 7.38542 12.0977 7.38542C12.1207 7.38542 12.2146 7.34731 12.3793 7.27108C12.5287 7.20248 12.6111 7.16818 12.6264 7.16818C12.6264 7.1758 12.5958 7.20057 12.5345 7.2425C12.5038 7.26536 12.4885 7.2787 12.4885 7.28252C12.4885 7.28633 12.4923 7.28823 12.5 7.28823C12.5115 7.28823 12.5307 7.28442 12.5575 7.2768C12.6149 7.26155 12.6513 7.25393 12.6667 7.25393C12.6705 7.25393 12.6724 7.25584 12.6724 7.25965V7.31682C12.6724 7.34731 12.6169 7.39876 12.5057 7.47118C12.3985 7.54359 12.3448 7.58742 12.3448 7.60267C12.3448 7.61791 12.4004 7.66174 12.5115 7.73416C12.6034 7.80276 12.6494 7.84088 12.6494 7.8485C12.6341 7.8485 12.5805 7.82944 12.4885 7.79133C12.408 7.76084 12.3621 7.74559 12.3506 7.74559H12.3448C12.3448 7.75322 12.3755 7.77418 12.4368 7.80848C12.4981 7.83897 12.5287 7.85612 12.5287 7.85993V7.87708C12.5287 7.88471 12.5211 7.88852 12.5057 7.88852C12.4904 7.88852 12.4598 7.8828 12.4138 7.87137C12.3716 7.85612 12.3027 7.84088 12.2069 7.82563H12.1954C12.0843 7.82563 11.7452 8.03716 11.1782 8.46022C10.5881 8.90233 9.99425 9.30252 9.39655 9.66079C8.79885 10.0152 8.16858 10.4535 7.50575 10.9757C6.84291 11.494 6.13793 11.9838 5.3908 12.445C4.64368 12.9061 4.0977 13.2358 3.75287 13.434C3.65709 13.4874 3.5977 13.5141 3.57471 13.5141C3.56705 13.5141 3.56322 13.5121 3.56322 13.5083C3.56322 13.4626 3.75862 13.2625 4.14943 12.9081C4.38697 12.6946 4.50575 12.5612 4.50575 12.5079C4.50575 12.4926 4.49234 12.485 4.46552 12.485C4.37356 12.485 4.09387 12.6127 3.62644 12.868C2.73372 13.3559 2.25479 13.5998 2.18966 13.5998C2.18582 13.5998 2.18391 13.5979 2.18391 13.5941C2.18391 13.556 2.4387 13.3711 2.94828 13.0395C3.45785 12.708 3.78161 12.4793 3.91954 12.3535C4.05747 12.2277 4.49042 11.8485 5.21839 11.2158C5.95019 10.5793 6.5364 10.0534 6.97701 9.63792C7.42146 9.21868 7.90613 8.78228 8.43103 8.32873C8.95594 7.87518 9.22605 7.64459 9.24138 7.63697C9.24138 7.62554 8.95402 7.51691 8.37931 7.3111C7.78927 7.10148 7.31226 6.86517 6.94828 6.60219C6.58812 6.33921 6.22031 6.09147 5.84483 5.85898C5.47318 5.62649 5.1092 5.42449 4.75287 5.25298C4.40038 5.07766 4.21648 4.97094 4.20115 4.93283C4.19732 4.92139 4.1954 4.91186 4.1954 4.90424C4.1954 4.88518 4.20498 4.87375 4.22414 4.86994C4.24329 4.86613 4.25287 4.86041 4.25287 4.85279C4.25287 4.84516 4.25096 4.83945 4.24713 4.83564C4.2318 4.82039 4.22414 4.80896 4.22414 4.80133C4.22414 4.79371 4.25096 4.7575 4.3046 4.69271C4.36207 4.62792 4.43487 4.59552 4.52299 4.59552C4.61111 4.59552 4.65517 4.59171 4.65517 4.58409C4.65517 4.57646 4.61494 4.54788 4.53448 4.49833C4.45402 4.44497 4.3659 4.37828 4.27011 4.29824C4.17433 4.21439 4.12644 4.16293 4.12644 4.14388C4.12644 4.12482 4.13602 4.10958 4.15517 4.09814C4.16284 4.09052 4.16667 4.0848 4.16667 4.08099C4.16667 4.07337 4.16284 4.06575 4.15517 4.05812C4.13602 4.04669 4.12644 4.03716 4.12644 4.02954C4.12644 4.02192 4.13793 4.0181 4.16092 4.0181C4.18391 4.0181 4.2069 3.99524 4.22988 3.9495C4.2567 3.90376 4.31034 3.86756 4.3908 3.84088C4.47126 3.81039 4.74521 3.74559 5.21264 3.6465C5.68008 3.54359 6.01916 3.45021 6.22988 3.36636C6.44444 3.2787 6.75862 3.1777 7.17241 3.06336C7.59004 2.94521 7.86782 2.88614 8.00575 2.88614H8.45402C8.61494 2.88614 9.13602 2.78323 10.0172 2.57742C10.9023 2.37161 11.4943 2.2344 11.7931 2.16579C12.0958 2.09719 12.3333 2.05336 12.5057 2.0343ZM10.8793 7.80276L1 14L7.71839 8.54026L8.94828 7.44831L7.28161 6.88232L10.3563 6.4021L11.3161 7.05955L10.8793 7.80276Z" fill="white"/>
</svg>
